<svg width="54" height="54" viewBox="0 0 54 54" fill="none" xmlns="http://www.w3.org/2000/svg">
<path d="M51.76 25.0933L28.2133 1.54667C27.2267 0.56 25.8667 0 24.4533 0H5.33333C2.4 0 0 2.4 0 5.33333V24.4533C0 25.8667 0.56 27.2267 1.57333 28.2133L25.12 51.76C27.2 53.84 30.5867 53.84 32.6667 51.76L51.7867 32.64C53.8667 30.56 53.8667 27.2 51.76 25.0933ZM28.5 50.5L3 25.5V3H26L51 29L28.5 50.5Z" fill="black"/>
<path d="M16 17C17.6569 17 19 15.6569 19 14C19 12.3431 17.6569 11 16 11C14.3431 11 13 12.3431 13 14C13 15.6569 14.3431 17 16 17Z" fill="black"/>
</svg>
