<svg width="62" height="62" viewBox="0 0 62 62" fill="none" xmlns="http://www.w3.org/2000/svg">
<path d="M18.4362 20.6643L28.6737 9.65181V42.8143C28.6737 44.2268 29.8112 45.3643 31.2237 45.3643C32.6362 45.3643 33.7737 44.2268 33.7737 42.8143V9.65181L44.0112 20.6643C44.9737 21.7018 46.5863 21.7518 47.6237 20.8018C48.6612 19.8393 48.7112 18.2268 47.7612 17.1893L33.0987 1.41431C31.6612 -0.0356857 29.8988 0.764314 29.3612 1.41431L14.6987 17.1893C13.7362 18.2268 13.7987 19.8393 14.8362 20.8018C15.8612 21.7518 17.4737 21.7018 18.4362 20.6643Z" fill="#19110B"/>
<path d="M59.2996 41.8768C57.8871 41.8768 56.7496 43.0143 56.7496 44.4268V56.7268H5.69961V44.4268C5.69961 43.0143 4.56211 41.8768 3.14961 41.8768C1.73711 41.8768 0.599609 43.0268 0.599609 44.4268V59.2768C0.599609 60.6893 1.73711 61.8268 3.14961 61.8268H59.2996C60.7121 61.8268 61.8496 60.6893 61.8496 59.2768V44.4268C61.8496 43.0268 60.7121 41.8768 59.2996 41.8768Z" fill="#19110B"/>
</svg>
