<svg width="11" height="10" viewBox="0 0 11 10" fill="none" xmlns="http://www.w3.org/2000/svg">
<path d="M4.33007 0C1.94377 0 0 1.84738 0 4.11535C0 6.38333 1.94377 8.23071 4.33007 8.23071C5.36777 8.23071 6.32077 7.88048 7.06765 7.29913L9.65301 9.75628C9.69291 9.79578 9.7407 9.82731 9.79358 9.84903C9.84646 9.87076 9.90337 9.88223 9.96098 9.88279C10.0186 9.88335 10.0757 9.87297 10.1291 9.85228C10.1824 9.83158 10.2309 9.80098 10.2716 9.76226C10.3123 9.72355 10.3445 9.67749 10.3663 9.6268C10.3881 9.57611 10.399 9.5218 10.3984 9.46705C10.3978 9.4123 10.3858 9.35821 10.3629 9.30795C10.34 9.25769 10.3069 9.21227 10.2653 9.17434L7.67995 6.71719C8.29164 6.00734 8.66013 5.1016 8.66013 4.11535C8.66013 1.84738 6.71637 0 4.33007 0ZM4.33007 0.823071C6.24834 0.823071 7.79412 2.2922 7.79412 4.11535C7.79412 5.93851 6.24834 7.40764 4.33007 7.40764C2.41179 7.40764 0.866013 5.93851 0.866013 4.11535C0.866013 2.2922 2.41179 0.823071 4.33007 0.823071Z" fill="black"/>
</svg>
