<svg width="10" height="11" viewBox="0 0 10 11" fill="none" xmlns="http://www.w3.org/2000/svg">
<path d="M5.43784 5.85035L6.92635 4.36297C6.97653 4.30442 7.00275 4.22911 6.99977 4.15209C6.99679 4.07507 6.96484 4.002 6.91029 3.9475C6.85575 3.89299 6.78263 3.86106 6.70554 3.85809C6.62846 3.85511 6.55309 3.88131 6.4945 3.93145L5.00599 5.40352L3.50828 3.90696C3.44969 3.85683 3.37432 3.83063 3.29724 3.8336C3.22016 3.83658 3.14704 3.86851 3.09249 3.92301C3.03794 3.97752 3.00599 4.05058 3.00301 4.12761C3.00003 4.20463 3.02625 4.27994 3.07643 4.33849L4.57107 5.85035L3.10706 7.29488C3.075 7.32231 3.04896 7.35607 3.03057 7.39404C3.01219 7.43201 3.00186 7.47337 3.00023 7.51552C2.9986 7.55767 3.00571 7.5997 3.0211 7.63897C3.0365 7.67824 3.05986 7.71391 3.08971 7.74374C3.11956 7.77356 3.15525 7.7969 3.19455 7.81229C3.23386 7.82767 3.27592 7.83477 3.3181 7.83315C3.36028 7.83152 3.40167 7.8212 3.43967 7.80283C3.47767 7.78446 3.51145 7.75844 3.53891 7.7264L4.99986 6.26657L6.45162 7.71722C6.51021 7.76736 6.58558 7.79355 6.66266 7.79058C6.73975 7.7876 6.81287 7.75567 6.86741 7.70117C6.92196 7.64666 6.95392 7.5736 6.95689 7.49658C6.95987 7.41955 6.93365 7.34424 6.88347 7.28569L5.43784 5.85035Z" fill="black"/>
<path d="M5 10.8334C4.0111 10.8334 3.0444 10.5401 2.22215 9.99072C1.3999 9.44132 0.759043 8.66042 0.380604 7.74679C0.0021664 6.83316 -0.0968502 5.82783 0.0960758 4.85792C0.289002 3.88802 0.765206 2.9971 1.46447 2.29784C2.16373 1.59858 3.05465 1.12238 4.02455 0.92945C4.99445 0.736524 5.99979 0.83554 6.91342 1.21398C7.82705 1.59242 8.60794 2.23328 9.15735 3.05552C9.70676 3.87777 10 4.84447 10 5.83338C10 7.15946 9.47322 8.43123 8.53553 9.36891C7.59785 10.3066 6.32608 10.8334 5 10.8334V10.8334ZM5 1.45838C4.13471 1.45838 3.28885 1.71497 2.56938 2.1957C1.84992 2.67643 1.28916 3.35971 0.958029 4.15914C0.626896 4.95856 0.540256 5.83823 0.709067 6.6869C0.877877 7.53556 1.29456 8.31511 1.90641 8.92697C2.51826 9.53882 3.29781 9.9555 4.14648 10.1243C4.99515 10.2931 5.87481 10.2065 6.67424 9.87535C7.47367 9.54421 8.15695 8.98346 8.63768 8.26399C9.11841 7.54453 9.375 6.69867 9.375 5.83338C9.375 4.67305 8.91406 3.56026 8.09359 2.73978C7.27312 1.91931 6.16032 1.45838 5 1.45838V1.45838Z" fill="black"/>
</svg>
