<svg width="21" height="19" viewBox="0 0 21 19" fill="none" xmlns="http://www.w3.org/2000/svg">
<path d="M9.52794 18.4285C9.78915 18.6897 10.1403 18.8353 10.5086 18.8353C10.8726 18.8353 11.2323 18.6854 11.4892 18.4285L19.1843 10.7333C20.3534 9.56427 20.9957 8.00982 21 6.36117C21 4.70823 20.3577 3.15378 19.1886 1.98474C18.0196 0.815692 16.4694 0.173359 14.8165 0.173359C13.1935 0.173359 11.6648 0.794281 10.5043 1.92479C9.33952 0.789999 7.80648 0.164795 6.17924 0.164795C4.53059 0.164795 2.98042 0.807128 1.81138 1.97189C0.642333 3.14094 0 4.69538 0 6.34832C0 7.99697 0.646615 9.55142 1.81566 10.7205L9.52794 18.4285ZM2.55648 2.717C3.52427 1.74922 4.81321 1.21394 6.18352 1.21394C7.55383 1.21394 8.84706 1.74922 9.81913 2.72128L10.136 3.03816C10.2345 3.13666 10.3673 3.19232 10.5086 3.19232C10.6456 3.19232 10.7826 3.13666 10.8811 3.03816L11.1894 2.72984C12.1615 1.75778 13.4504 1.2225 14.825 1.2225C16.1954 1.2225 17.4843 1.75778 18.4521 2.72556C19.4241 3.69763 19.9551 4.98657 19.9551 6.35688C19.9551 7.72719 19.4199 9.01614 18.4478 9.98821L10.7484 17.6876C10.6242 17.8118 10.3972 17.8118 10.2688 17.6876L2.56077 9.97964C1.5887 9.00758 1.05343 7.71863 1.05343 6.34832C1.05343 4.97801 1.5887 3.68906 2.55648 2.717Z" fill="white"/>
</svg>
