<svg width="19" height="19" viewBox="0 0 19 19" fill="none" xmlns="http://www.w3.org/2000/svg">
<path d="M17.9877 1.72086L15.4851 0.0524844C15.3413 -0.0431406 15.1479 -0.00448432 15.0525 0.139047C14.9568 0.282516 14.9955 0.475984 15.139 0.571672L17.6416 2.24002C17.6949 2.27536 17.7549 2.29242 17.8143 2.29242C17.9151 2.29242 18.0142 2.24367 18.0742 2.15348C18.1699 2.00998 18.1312 1.81652 17.9877 1.72086Z" fill="black"/>
<path d="M16.5349 6.22969C16.3625 6.22969 16.2229 6.36922 16.2229 6.54169V17.0091C16.2229 17.6785 15.6785 18.2229 15.0092 18.2229H1.83778C1.16841 18.2229 0.623969 17.6785 0.623969 17.0091V3.83775C0.623969 3.16841 1.16841 2.62394 1.83778 2.62394H9.60131C9.77375 2.62394 9.91328 2.48441 9.91328 2.31197C9.91328 2.13953 9.77375 2 9.60131 2H1.83778C0.824438 2 0 2.82444 0 3.83775V17.0091C0 18.0224 0.824438 18.8469 1.83778 18.8469H15.0092C16.0225 18.8469 16.8469 18.0224 16.8469 17.0091V6.54169C16.8469 6.36922 16.7074 6.22969 16.5349 6.22969Z" fill="black"/>
<path d="M14.1571 2.0562C14.0891 2.00867 14.0054 1.99011 13.9237 2.00505C13.8424 2.01964 13.7701 2.06595 13.723 2.13389L6.53037 12.4661C6.50262 12.5057 6.48465 12.5514 6.47765 12.5995L6.00327 15.8595C5.98621 15.9762 6.0368 16.0929 6.13368 16.1602C6.18699 16.1974 6.24946 16.2163 6.3119 16.2163C6.36308 16.2163 6.41458 16.2038 6.46121 16.1782L9.35371 14.6018C9.39636 14.5787 9.43293 14.5461 9.46033 14.5061L16.6526 4.17395C16.7511 4.03258 16.7163 3.8382 16.5749 3.7398L14.1571 2.0562ZM8.99055 14.0894L6.7104 15.3318L7.08455 12.7622L14.0566 2.74661L15.9626 4.07342L8.99055 14.0894Z" fill="black"/>
</svg>
